<?xml version="1.0" encoding="UTF-8"?>
<svg id="Ebene_1" data-name="Ebene 1" xmlns="http://www.w3.org/2000/svg" viewBox="0 0 611.49 85">
  <defs>
    <style>
      .cls-1 {
        letter-spacing: 0em;
      }

      .cls-2 {
        letter-spacing: -.02em;
      }

      .cls-3 {
        letter-spacing: .01em;
      }

      .cls-4 {
        letter-spacing: -.01em;
      }

      .cls-5 {
        letter-spacing: -.01em;
      }

      .cls-6 {
        letter-spacing: -.01em;
      }

      .cls-7 {
        letter-spacing: 0em;
      }

      .cls-8 {
        letter-spacing: 0em;
      }

      .cls-9 {
        letter-spacing: -.01em;
      }

      .cls-10 {
        letter-spacing: -.01em;
      }

      .cls-11, .cls-12 {
        fill: #fff;
      }

      .cls-13 {
        letter-spacing: -.01em;
      }

      .cls-14 {
        letter-spacing: 0em;
      }

      .cls-15 {
        letter-spacing: 0em;
      }

      .cls-16 {
        letter-spacing: 0em;
      }

      .cls-17 {
        letter-spacing: -.01em;
      }

      .cls-18 {
        letter-spacing: 0em;
      }

      .cls-19 {
        letter-spacing: 0em;
      }

      .cls-12 {
        font-family: NeueHaasUnicaW1G-Regular, 'Neue Haas Unica W1G';
        font-size: 40px;
      }

      .cls-20 {
        letter-spacing: .02em;
      }

      .cls-21 {
        letter-spacing: 0em;
      }

      .cls-22 {
        letter-spacing: 0em;
      }

      .cls-23 {
        letter-spacing: -.01em;
      }

      .cls-24 {
        letter-spacing: -.01em;
      }

      .cls-25 {
        letter-spacing: -.01em;
      }

      .cls-26 {
        letter-spacing: 0em;
      }

      .cls-27 {
        letter-spacing: 0em;
      }

      .cls-28 {
        letter-spacing: 0em;
      }

      .cls-29 {
        letter-spacing: -.01em;
      }

      .cls-30 {
        letter-spacing: 0em;
      }

      .cls-31 {
        letter-spacing: 0em;
      }

      .cls-32 {
        letter-spacing: 0em;
      }

      .cls-33 {
        letter-spacing: 0em;
      }

      .cls-34 {
        letter-spacing: -.01em;
      }

      .cls-35 {
        letter-spacing: 0em;
      }

      .cls-36 {
        letter-spacing: 0em;
      }

      .cls-37 {
        letter-spacing: 0em;
      }

      .cls-38 {
        letter-spacing: -.09em;
      }
    </style>
  </defs>
  <text class="cls-12" transform="translate(99.86 34.24)"><tspan class="cls-38" x="0" y="0">T</tspan><tspan class="cls-21" x="20.16" y="0">e</tspan><tspan class="cls-33" x="42.22" y="0">c</tspan><tspan class="cls-23" x="63.33" y="0">h</tspan><tspan class="cls-36" x="85.87" y="0">no</tspan><tspan class="cls-18" x="131.05" y="0">l</tspan><tspan class="cls-21" x="140.54" y="0">o</tspan><tspan class="cls-5" x="163.19" y="0">g</tspan><tspan class="cls-26" x="185.54" y="0">i</tspan><tspan class="cls-31" x="195.02" y="0">e</tspan><tspan class="cls-4" x="216.77" y="0">t</tspan><tspan class="cls-21" x="229.12" y="0">r</tspan><tspan class="cls-17" x="243.66" y="0">a</tspan><tspan class="cls-35" x="264.4" y="0">n</tspan><tspan class="cls-14" x="287.18" y="0">s</tspan><tspan class="cls-29" x="306.91" y="0">f</tspan><tspan class="cls-1" x="318.71" y="0">e</tspan><tspan class="cls-20" x="340.44" y="0">r</tspan><tspan class="cls-10" x="355.69" y="0">z</tspan><tspan class="cls-1" x="373.92" y="0">e</tspan><tspan class="cls-25" x="395.65" y="0">n</tspan><tspan class="cls-13" x="418.22" y="0">t</tspan><tspan class="cls-37" x="430.57" y="0">r</tspan><tspan class="cls-24" x="445.04" y="0">u</tspan><tspan class="cls-3" x="467.51" y="0">m </tspan></text>
  <g>
    <circle class="cls-11" cx="69.38" cy="11.05" r="5.32"/>
    <path class="cls-11" d="M0,35.2l2.58-9.7h19.37l5.2-19.4h9.72l-5.2,19.4h26.78c6.09,0,10.53,5.78,8.95,11.66l-9.87,36.84h-9.72l9.95-37.08c.23-.87-.42-1.73-1.33-1.73h-27.32l-5.24,19.4h-9.72l5.26-19.4H0Z"/>
  </g>
  <text class="cls-12" transform="translate(106.44 74)"><tspan class="cls-2" x="0" y="0">U</tspan><tspan class="cls-6" x="27.52" y="0">n</tspan><tspan class="cls-30" x="50.06" y="0">b</tspan><tspan class="cls-27" x="73.15" y="0">e</tspan><tspan class="cls-16" x="94.89" y="0">m</tspan><tspan class="cls-17" x="129.3" y="0">an</tspan><tspan class="cls-25" x="172.58" y="0">n</tspan><tspan class="cls-9" x="195.15" y="0">t</tspan><tspan class="cls-3" x="207.38" y="0">e </tspan><tspan class="cls-6" x="239.38" y="0">F</tspan><tspan class="cls-34" x="261.79" y="0">l</tspan><tspan class="cls-1" x="271" y="0">u</tspan><tspan class="cls-22" x="293.77" y="0">g</tspan><tspan class="cls-7" x="316.47" y="0">s</tspan><tspan class="cls-19" x="336.13" y="0">y</tspan><tspan class="cls-32" x="355.13" y="0">s</tspan><tspan class="cls-24" x="374.9" y="0">t</tspan><tspan class="cls-28" x="387.13" y="0">e</tspan><tspan class="cls-15" x="408.86" y="0">m</tspan><tspan class="cls-8" x="443.2" y="0">e</tspan></text>
</svg>